<svg width="400" height="400" viewBox="0 0 400 400" fill="none" xmlns="http://www.w3.org/2000/svg">
  <rect width="400" height="400" fill="#F3F4F6"/>
  <path d="M200 140C186.745 140 176 150.745 176 164V236C176 249.255 186.745 260 200 260C213.255 260 224 249.255 224 236V164C224 150.745 213.255 140 200 140Z" fill="#9CA3AF"/>
  <path d="M200 120C175.699 120 156 139.699 156 164V236C156 260.301 175.699 280 200 280C224.301 280 244 260.301 244 236V164C244 139.699 224.301 120 200 120ZM200 140C213.255 140 224 150.745 224 164V236C224 249.255 213.255 260 200 260C186.745 260 176 249.255 176 236V164C176 150.745 186.745 140 200 140Z" fill="#6B7280"/>
  <text x="200" y="320" text-anchor="middle" font-family="Arial, sans-serif" font-size="24" fill="#6B7280">產品圖片</text>
</svg> 